<mxfile host="65bd71144e">
    <diagram id="OwVPQnBEFIIezcP6ZlUQ" name="Page-1">
        <mxGraphModel dx="913" dy="682" grid="1" gridSize="10" guides="1" tooltips="1" connect="1" arrows="1" fold="1" page="1" pageScale="1" pageWidth="827" pageHeight="1169" math="0" shadow="0">
            <root>
                <mxCell id="0"/>
                <mxCell id="1" parent="0"/>
                <mxCell id="2" value="" style="rounded=1;whiteSpace=wrap;html=1;" vertex="1" parent="1">
                    <mxGeometry x="20" y="10" width="790" height="630" as="geometry"/>
                </mxCell>
                <mxCell id="3" value="" style="rounded=1;whiteSpace=wrap;html=1;" vertex="1" parent="1">
                    <mxGeometry x="60" y="40" width="690" height="60" as="geometry"/>
                </mxCell>
                <mxCell id="4" value="header/nav" style="text;html=1;strokeColor=none;fillColor=none;align=center;verticalAlign=middle;whiteSpace=wrap;rounded=0;" vertex="1" parent="1">
                    <mxGeometry x="375" y="55" width="60" height="30" as="geometry"/>
                </mxCell>
                <mxCell id="5" value="" style="rounded=1;whiteSpace=wrap;html=1;" vertex="1" parent="1">
                    <mxGeometry x="60" y="140" width="690" height="470" as="geometry"/>
                </mxCell>
                <mxCell id="6" value="" style="rounded=1;whiteSpace=wrap;html=1;" vertex="1" parent="1">
                    <mxGeometry x="80" y="180" width="180" height="60" as="geometry"/>
                </mxCell>
                <mxCell id="7" value="Update User" style="text;html=1;strokeColor=none;fillColor=none;align=center;verticalAlign=middle;whiteSpace=wrap;rounded=0;" vertex="1" parent="1">
                    <mxGeometry x="140" y="195" width="60" height="30" as="geometry"/>
                </mxCell>
                <mxCell id="8" value="" style="rounded=1;whiteSpace=wrap;html=1;" vertex="1" parent="1">
                    <mxGeometry x="80" y="280" width="180" height="60" as="geometry"/>
                </mxCell>
                <mxCell id="9" value="Delete User" style="text;html=1;strokeColor=none;fillColor=none;align=center;verticalAlign=middle;whiteSpace=wrap;rounded=0;" vertex="1" parent="1">
                    <mxGeometry x="140" y="295" width="60" height="30" as="geometry"/>
                </mxCell>
                <mxCell id="10" value="" style="rounded=1;whiteSpace=wrap;html=1;" vertex="1" parent="1">
                    <mxGeometry x="450" y="180" width="280" height="350" as="geometry"/>
                </mxCell>
                <mxCell id="11" value="Past Orders List" style="text;html=1;strokeColor=none;fillColor=none;align=center;verticalAlign=middle;whiteSpace=wrap;rounded=0;" vertex="1" parent="1">
                    <mxGeometry x="560" y="195" width="60" height="30" as="geometry"/>
                </mxCell>
                <mxCell id="12" value="" style="rounded=1;whiteSpace=wrap;html=1;" vertex="1" parent="1">
                    <mxGeometry x="460" y="250" width="260" height="50" as="geometry"/>
                </mxCell>
                <mxCell id="13" value="Order: Order No/id, total price, games?&amp;nbsp;" style="text;html=1;strokeColor=none;fillColor=none;align=center;verticalAlign=middle;whiteSpace=wrap;rounded=0;" vertex="1" parent="1">
                    <mxGeometry x="460" y="260" width="250" height="30" as="geometry"/>
                </mxCell>
                <mxCell id="14" value="" style="rounded=1;whiteSpace=wrap;html=1;" vertex="1" parent="1">
                    <mxGeometry x="80" y="360" width="320" height="130" as="geometry"/>
                </mxCell>
                <mxCell id="15" value="Note: On delete user, set loggedin to false FE and redirect to HomePage" style="text;html=1;strokeColor=none;fillColor=none;align=center;verticalAlign=middle;whiteSpace=wrap;rounded=0;" vertex="1" parent="1">
                    <mxGeometry x="90" y="370" width="300" height="100" as="geometry"/>
                </mxCell>
            </root>
        </mxGraphModel>
    </diagram>
    <diagram id="2gE7dRWgmUlFTqY8UStJ" name="Page-2">
        <mxGraphModel dx="1557" dy="522" grid="1" gridSize="10" guides="1" tooltips="1" connect="1" arrows="1" fold="1" page="1" pageScale="1" pageWidth="827" pageHeight="1169" math="0" shadow="0">
            <root>
                <mxCell id="0"/>
                <mxCell id="1" parent="0"/>
                <mxCell id="5cB2PX_XhTDg1gUeGIWf-1" value="" style="rounded=1;whiteSpace=wrap;html=1;" vertex="1" parent="1">
                    <mxGeometry x="20" y="20" width="760" height="640" as="geometry"/>
                </mxCell>
                <mxCell id="5cB2PX_XhTDg1gUeGIWf-2" value="Checkout" style="text;html=1;strokeColor=none;fillColor=none;align=center;verticalAlign=middle;whiteSpace=wrap;rounded=0;" vertex="1" parent="1">
                    <mxGeometry x="340" y="40" width="60" height="30" as="geometry"/>
                </mxCell>
                <mxCell id="5cB2PX_XhTDg1gUeGIWf-3" value="" style="rounded=1;whiteSpace=wrap;html=1;" vertex="1" parent="1">
                    <mxGeometry x="90" y="130" width="570" height="60" as="geometry"/>
                </mxCell>
                <mxCell id="5cB2PX_XhTDg1gUeGIWf-4" value="" style="rounded=0;whiteSpace=wrap;html=1;" vertex="1" parent="1">
                    <mxGeometry x="827" y="130" width="120" height="60" as="geometry"/>
                </mxCell>
                <mxCell id="5cB2PX_XhTDg1gUeGIWf-5" value="" style="rounded=1;whiteSpace=wrap;html=1;" vertex="1" parent="1">
                    <mxGeometry x="-760" y="25" width="700" height="575" as="geometry"/>
                </mxCell>
                <mxCell id="5cB2PX_XhTDg1gUeGIWf-6" value="cart" style="text;html=1;strokeColor=none;fillColor=none;align=center;verticalAlign=middle;whiteSpace=wrap;rounded=0;" vertex="1" parent="1">
                    <mxGeometry x="-450" y="70" width="60" height="30" as="geometry"/>
                </mxCell>
                <mxCell id="5cB2PX_XhTDg1gUeGIWf-7" value="" style="rounded=1;whiteSpace=wrap;html=1;" vertex="1" parent="1">
                    <mxGeometry x="-680" y="170" width="120" height="250" as="geometry"/>
                </mxCell>
                <mxCell id="5cB2PX_XhTDg1gUeGIWf-8" value="game info" style="text;html=1;strokeColor=none;fillColor=none;align=center;verticalAlign=middle;whiteSpace=wrap;rounded=0;" vertex="1" parent="1">
                    <mxGeometry x="-650" y="260" width="60" height="30" as="geometry"/>
                </mxCell>
                <mxCell id="5cB2PX_XhTDg1gUeGIWf-9" value="" style="rounded=1;whiteSpace=wrap;html=1;" vertex="1" parent="1">
                    <mxGeometry x="-473" y="460" width="120" height="60" as="geometry"/>
                </mxCell>
                <mxCell id="5cB2PX_XhTDg1gUeGIWf-11" value="Go to checkout BTN" style="text;html=1;strokeColor=none;fillColor=none;align=center;verticalAlign=middle;whiteSpace=wrap;rounded=0;" vertex="1" parent="1">
                    <mxGeometry x="-473" y="475" width="103" height="30" as="geometry"/>
                </mxCell>
                <mxCell id="5cB2PX_XhTDg1gUeGIWf-13" value="" style="rounded=1;whiteSpace=wrap;html=1;" vertex="1" parent="1">
                    <mxGeometry x="-660" y="340" width="80" height="60" as="geometry"/>
                </mxCell>
                <mxCell id="5cB2PX_XhTDg1gUeGIWf-14" value="Delete from cart" style="text;html=1;strokeColor=none;fillColor=none;align=center;verticalAlign=middle;whiteSpace=wrap;rounded=0;" vertex="1" parent="1">
                    <mxGeometry x="-650" y="340" width="60" height="50" as="geometry"/>
                </mxCell>
                <mxCell id="5cB2PX_XhTDg1gUeGIWf-15" value="Text" style="text;html=1;strokeColor=none;fillColor=none;align=center;verticalAlign=middle;whiteSpace=wrap;rounded=0;" vertex="1" parent="1">
                    <mxGeometry x="110" y="140" width="60" height="30" as="geometry"/>
                </mxCell>
                <mxCell id="5cB2PX_XhTDg1gUeGIWf-16" value="game price" style="text;html=1;strokeColor=none;fillColor=none;align=center;verticalAlign=middle;whiteSpace=wrap;rounded=0;" vertex="1" parent="1">
                    <mxGeometry x="220" y="145" width="60" height="30" as="geometry"/>
                </mxCell>
                <mxCell id="5cB2PX_XhTDg1gUeGIWf-17" value="" style="rounded=1;whiteSpace=wrap;html=1;" vertex="1" parent="1">
                    <mxGeometry x="90" y="210" width="570" height="60" as="geometry"/>
                </mxCell>
                <mxCell id="5cB2PX_XhTDg1gUeGIWf-18" value="" style="rounded=1;whiteSpace=wrap;html=1;" vertex="1" parent="1">
                    <mxGeometry x="90" y="290" width="570" height="60" as="geometry"/>
                </mxCell>
                <mxCell id="5cB2PX_XhTDg1gUeGIWf-19" value="" style="rounded=1;whiteSpace=wrap;html=1;" vertex="1" parent="1">
                    <mxGeometry x="540" y="370" width="120" height="60" as="geometry"/>
                </mxCell>
                <mxCell id="5cB2PX_XhTDg1gUeGIWf-20" value="Total Price" style="text;html=1;strokeColor=none;fillColor=none;align=center;verticalAlign=middle;whiteSpace=wrap;rounded=0;" vertex="1" parent="1">
                    <mxGeometry x="570" y="385" width="60" height="30" as="geometry"/>
                </mxCell>
                <mxCell id="5cB2PX_XhTDg1gUeGIWf-21" value="" style="rounded=1;whiteSpace=wrap;html=1;" vertex="1" parent="1">
                    <mxGeometry x="340" y="490" width="120" height="60" as="geometry"/>
                </mxCell>
                <mxCell id="5cB2PX_XhTDg1gUeGIWf-22" value="BuyNowBtn" style="text;html=1;strokeColor=none;fillColor=none;align=center;verticalAlign=middle;whiteSpace=wrap;rounded=0;" vertex="1" parent="1">
                    <mxGeometry x="370" y="505" width="60" height="30" as="geometry"/>
                </mxCell>
                <mxCell id="5cB2PX_XhTDg1gUeGIWf-23" value="" style="rounded=1;whiteSpace=wrap;html=1;" vertex="1" parent="1">
                    <mxGeometry x="90" y="365" width="240" height="110" as="geometry"/>
                </mxCell>
                <mxCell id="5cB2PX_XhTDg1gUeGIWf-25" value="RTN to Landing Page BTN" style="text;html=1;strokeColor=none;fillColor=none;align=center;verticalAlign=middle;whiteSpace=wrap;rounded=0;" vertex="1" parent="1">
                    <mxGeometry x="160" y="390" width="90" height="70" as="geometry"/>
                </mxCell>
            </root>
        </mxGraphModel>
    </diagram>
</mxfile>